<mxfile host="app.diagrams.net" modified="2024-04-09T16:03:11.154Z" agent="Mozilla/5.0 (Macintosh; Intel Mac OS X 10_15_7) AppleWebKit/537.36 (KHTML, like Gecko) Chrome/123.0.0.0 Safari/537.36" etag="pXVTx6Bwv7hHzmx_wZIE" version="24.2.1" type="device">
  <diagram name="Page-1" id="zx6ssTIXNypURX5lzwHl">
    <mxGraphModel dx="993" dy="648" grid="1" gridSize="10" guides="1" tooltips="1" connect="1" arrows="1" fold="1" page="1" pageScale="1" pageWidth="850" pageHeight="1100" math="0" shadow="0">
      <root>
        <mxCell id="0" />
        <mxCell id="1" parent="0" />
        <mxCell id="qVmCeoNbTNOla1I1sgsk-1" value="main" style="swimlane;fontStyle=1;align=center;verticalAlign=top;childLayout=stackLayout;horizontal=1;startSize=26;horizontalStack=0;resizeParent=1;resizeParentMax=0;resizeLast=0;collapsible=1;marginBottom=0;whiteSpace=wrap;html=1;" parent="1" vertex="1">
          <mxGeometry x="345" y="310" width="160" height="118" as="geometry" />
        </mxCell>
        <mxCell id="qVmCeoNbTNOla1I1sgsk-2" value="+ running: boolean&lt;div&gt;+ screen int&lt;/div&gt;" style="text;strokeColor=none;fillColor=none;align=left;verticalAlign=top;spacingLeft=4;spacingRight=4;overflow=hidden;rotatable=0;points=[[0,0.5],[1,0.5]];portConstraint=eastwest;whiteSpace=wrap;html=1;" parent="qVmCeoNbTNOla1I1sgsk-1" vertex="1">
          <mxGeometry y="26" width="160" height="34" as="geometry" />
        </mxCell>
        <mxCell id="qVmCeoNbTNOla1I1sgsk-3" value="" style="line;strokeWidth=1;fillColor=none;align=left;verticalAlign=middle;spacingTop=-1;spacingLeft=3;spacingRight=3;rotatable=0;labelPosition=right;points=[];portConstraint=eastwest;strokeColor=inherit;" parent="qVmCeoNbTNOla1I1sgsk-1" vertex="1">
          <mxGeometry y="60" width="160" height="8" as="geometry" />
        </mxCell>
        <mxCell id="qVmCeoNbTNOla1I1sgsk-4" value="+ monster(): boolean&lt;div&gt;+ pygame.run(): void&lt;/div&gt;&lt;div&gt;+ pygame.quit(): void&lt;/div&gt;" style="text;strokeColor=none;fillColor=none;align=left;verticalAlign=top;spacingLeft=4;spacingRight=4;overflow=hidden;rotatable=0;points=[[0,0.5],[1,0.5]];portConstraint=eastwest;whiteSpace=wrap;html=1;" parent="qVmCeoNbTNOla1I1sgsk-1" vertex="1">
          <mxGeometry y="68" width="160" height="50" as="geometry" />
        </mxCell>
        <mxCell id="fvRzr8x2BebAIL6wc9HY-30" style="edgeStyle=orthogonalEdgeStyle;rounded=0;orthogonalLoop=1;jettySize=auto;html=1;exitX=0.75;exitY=0;exitDx=0;exitDy=0;entryX=0.75;entryY=0;entryDx=0;entryDy=0;" parent="1" edge="1">
          <mxGeometry relative="1" as="geometry">
            <mxPoint x="530" y="600" as="targetPoint" />
            <mxPoint x="530" y="600" as="sourcePoint" />
          </mxGeometry>
        </mxCell>
        <mxCell id="loREbfIwETaoqZj_1ABB-5" style="edgeStyle=orthogonalEdgeStyle;rounded=0;orthogonalLoop=1;jettySize=auto;html=1;entryX=1;entryY=0.5;entryDx=0;entryDy=0;" edge="1" parent="1" source="loREbfIwETaoqZj_1ABB-1" target="qVmCeoNbTNOla1I1sgsk-2">
          <mxGeometry relative="1" as="geometry" />
        </mxCell>
        <mxCell id="loREbfIwETaoqZj_1ABB-1" value="choices" style="swimlane;fontStyle=1;align=center;verticalAlign=top;childLayout=stackLayout;horizontal=1;startSize=26;horizontalStack=0;resizeParent=1;resizeParentMax=0;resizeLast=0;collapsible=1;marginBottom=0;whiteSpace=wrap;html=1;" vertex="1" parent="1">
          <mxGeometry x="590" y="290" width="160" height="170" as="geometry" />
        </mxCell>
        <mxCell id="loREbfIwETaoqZj_1ABB-2" value="+ input: boolean" style="text;strokeColor=none;fillColor=none;align=left;verticalAlign=top;spacingLeft=4;spacingRight=4;overflow=hidden;rotatable=0;points=[[0,0.5],[1,0.5]];portConstraint=eastwest;whiteSpace=wrap;html=1;" vertex="1" parent="loREbfIwETaoqZj_1ABB-1">
          <mxGeometry y="26" width="160" height="26" as="geometry" />
        </mxCell>
        <mxCell id="loREbfIwETaoqZj_1ABB-3" value="" style="line;strokeWidth=1;fillColor=none;align=left;verticalAlign=middle;spacingTop=-1;spacingLeft=3;spacingRight=3;rotatable=0;labelPosition=right;points=[];portConstraint=eastwest;strokeColor=inherit;" vertex="1" parent="loREbfIwETaoqZj_1ABB-1">
          <mxGeometry y="52" width="160" height="8" as="geometry" />
        </mxCell>
        <mxCell id="loREbfIwETaoqZj_1ABB-4" value="+ torso(): void&lt;div&gt;+ head(): void&lt;/div&gt;&lt;div&gt;+ skin(): void&lt;/div&gt;&lt;div&gt;+ arms(): void&lt;/div&gt;&lt;div&gt;+ legs(): void&lt;/div&gt;&lt;div&gt;+ eyes(): void&lt;/div&gt;&lt;div&gt;+ accessories(): void&lt;/div&gt;" style="text;strokeColor=none;fillColor=none;align=left;verticalAlign=top;spacingLeft=4;spacingRight=4;overflow=hidden;rotatable=0;points=[[0,0.5],[1,0.5]];portConstraint=eastwest;whiteSpace=wrap;html=1;" vertex="1" parent="loREbfIwETaoqZj_1ABB-1">
          <mxGeometry y="60" width="160" height="110" as="geometry" />
        </mxCell>
      </root>
    </mxGraphModel>
  </diagram>
</mxfile>
